<?xml version="1.0" standalone="no"?>
<!DOCTYPE svg PUBLIC "-//W3C//DTD SVG 20010904//EN"
 "http://www.w3.org/TR/2001/REC-SVG-20010904/DTD/svg10.dtd">
<svg version="1.0" xmlns="http://www.w3.org/2000/svg"
 width="50.000000pt" height="50.000000pt" viewBox="0 0 50.000000 50.000000"
 preserveAspectRatio="xMidYMid meet">

<g transform="translate(0.000000,50.000000) scale(0.100000,-0.100000)"
fill="#000000" stroke="none">
<path d="M198 488 c-27 -9 -41 -48 -18 -48 6 0 10 -7 10 -15 0 -8 -4 -15 -10
-15 -5 0 -10 -13 -10 -30 0 -16 5 -30 10 -30 6 0 10 -35 10 -85 l0 -85 -40 0
c-40 0 -40 0 -40 -37 0 -36 -2 -39 -53 -58 -46 -18 -52 -23 -55 -52 l-3 -33
250 0 251 0 0 48 0 48 -35 -4 c-30 -4 -35 -1 -35 17 0 12 -6 21 -15 21 -9 0
-15 9 -15 25 0 23 -4 25 -45 25 l-45 0 0 85 c0 50 4 85 10 85 6 0 10 14 10 30
0 17 -4 30 -10 30 -5 0 -10 7 -10 15 0 8 5 15 10 15 6 0 10 9 10 19 0 34 -75
50 -132 29z m102 -63 c0 -11 -12 -15 -50 -15 -38 0 -50 4 -50 15 0 11 12 15
50 15 38 0 50 -4 50 -15z m-14 -101 c-3 -9 -6 -22 -6 -30 0 -9 -11 -14 -30
-14 -19 0 -30 5 -30 14 0 8 -3 21 -6 30 -5 13 2 16 36 16 34 0 41 -3 36 -16z
m-6 -94 c0 -16 -7 -20 -30 -20 -23 0 -30 4 -30 20 0 16 7 20 30 20 23 0 30 -4
30 -20z m-103 -66 c-3 -3 -12 -4 -19 -1 -8 3 -5 6 6 6 11 1 17 -2 13 -5z m0
-20 c-3 -3 -12 -4 -19 -1 -8 3 -5 6 6 6 11 1 17 -2 13 -5z m0 -20 c-3 -3 -12
-4 -19 -1 -8 3 -5 6 6 6 11 1 17 -2 13 -5z"/>
<path d="M230 300 c0 -5 9 -10 20 -10 11 0 20 5 20 10 0 6 -9 10 -20 10 -11 0
-20 -4 -20 -10z"/>
<path d="M230 230 c0 -5 9 -10 20 -10 11 0 20 5 20 10 0 6 -9 10 -20 10 -11 0
-20 -4 -20 -10z"/>
</g>
</svg>
